<svg xmlns="http://www.w3.org/2000/svg" viewBox="0 0 64 64" role="img" aria-label="Shopify">
  <rect width="64" height="64" rx="14" fill="#95BF47"/>
  <path fill="#fff" d="M42.8 21.5c-.1-.8-.8-1.2-1.4-1.2s-1.2.2-1.8.6c-.8-2.4-2.2-4.4-4.7-4.4h-.4c-.7-.9-1.5-1.3-2.6-1.3-4 0-5.9 5-6.5 7.5-1.7.5-2.9.9-3 .9-.9.3-1 .3-1.1 1.2-.1.7-2.4 18.4-2.4 18.4L37 46.8l10.4-2.2s-4.5-22.3-4.6-23.1ZM34.3 18c1.2 0 2 1.5 2.5 3.2-1.2.4-2.6.8-4 1.2.5-2.1 1.5-4.4 1.5-4.4Zm-2.5-.8c.5 0 .9.2 1.3.6 0 0-1.8 2.8-2.3 5.2l-3.2 1c.7-2.8 2.1-6.8 4.2-6.8Zm-2.1 16.5s-1.2-.7-2.8-.7c-2.3 0-2.4 1.4-2.4 1.8 0 2 5.3 2.8 5.3 7.6 0 3.8-2.4 6.2-5.6 6.2-3.9 0-5.9-2.4-5.9-2.4l1-3.5s2 1.8 3.8 1.8c1.1 0 1.6-.9 1.6-1.5 0-2.7-4.4-2.8-4.4-7.2 0-3.7 2.7-7.3 8-7.3 2 0 3 .6 3 .6l-1.6 4.6Zm9-13.2c-.9.3-1.8.6-2.8.9-.4-1.4-1-2.7-1.8-3.5 2.2.3 3.4 1.7 4.6 2.6Z"/>
</svg>
