<svg width="200" height="200" viewBox="0 0 200 200" fill="none" xmlns="http://www.w3.org/2000/svg">
<path d="M51.057 39.0416C55.158 38.9863 59.7008 38.9827 63.7986 39.0518C63.7869 40.197 63.7854 41.3423 63.7942 42.4876L69.7744 42.4881L69.7672 44.1988C70.3961 44.1795 70.86 44.1813 71.4875 44.2133L71.4888 45.9151C71.8958 45.8928 72.1917 45.9284 72.5945 45.9635C73.3907 46.6105 74.0907 47.0804 74.8886 47.6912L74.9126 49.3424C75.4126 49.3419 75.8529 49.3593 76.3527 49.386C76.7612 50.0767 76.984 50.4817 77.4591 51.1534C77.475 52.2549 77.4809 53.3565 77.4768 54.458C78.3413 54.4602 79.2059 54.4701 80.0703 54.4878C80.0356 56.1837 80.0393 57.8801 80.0815 59.5758C80.6466 59.5774 81.2116 59.5869 81.7764 59.6042C81.9163 62.3604 81.7315 65.345 81.835 68.1414C82.9664 68.1356 84.0978 68.1446 85.229 68.1682C85.2145 70.4397 85.212 72.7112 85.2214 74.9827L87.3776 74.9855C87.4858 77.0173 87.4069 79.766 87.4031 81.853C88.3763 81.8721 89.7364 81.7775 90.6718 81.9C90.6677 83.3661 90.6311 84.9779 90.6897 86.4322L94.1021 86.4409C94.1479 87.7151 94.1197 89.1166 94.1182 90.4007L95 90.4013L94.988 92.0251C94.0109 92.0277 93.0337 92.0355 92.0566 92.0487L92.0613 94.9877L90.4129 95L90.4158 94.1466C89.1731 94.1432 87.6767 94.1889 86.466 94.0872C86.4093 93.3216 86.4373 92.0917 86.431 91.291C86.4393 91.0321 86.4424 91.0173 86.3913 90.7485C85.9583 90.5821 82.6639 90.6739 81.8824 90.6366C81.8248 89.6732 81.8545 88.3581 81.8504 87.3716C79.7587 87.3248 77.0548 87.4696 75.0525 87.3324C75.0138 86.6689 75.0248 85.8556 75.0157 85.1805C73.3227 85.0924 71.5745 85.2006 69.8794 85.1586C69.8492 84.0562 69.8607 82.8844 69.8523 81.7762C67.0588 81.6813 64.1828 81.8275 61.3784 81.7391C61.3611 81.1976 61.3678 80.6116 61.3632 80.0661C59.0808 80.0061 56.7911 80.0622 54.5038 80.0249C54.5011 79.3379 54.4949 78.7896 54.437 78.1017C53.5709 77.8612 52.4801 77.7242 51.6029 77.5188C50.4723 77.2542 49.1179 75.7442 48.1929 74.9022C47.4651 74.8689 46.6066 74.901 45.8693 74.9107L45.8355 71.5098L44.1793 71.5034C44.1512 70.9075 44.1608 70.393 44.1746 69.7953C43.6244 69.7816 43.0403 69.7904 42.487 69.7896C42.4367 67.8464 42.473 65.7541 42.4727 63.7997C41.3884 63.7514 40.1139 63.7864 39.0154 63.7916C38.9746 60.5515 39.0304 57.3009 39.0079 54.0599C39.001 53.0569 39.0005 52.0426 39.0336 51.0411C39.9109 50.9604 41.5295 51.0028 42.4624 50.9996C42.5035 49.3403 42.4772 47.5655 42.4771 45.8972C43.5286 45.8553 44.7893 45.8942 45.8559 45.9009L45.8492 42.4788C47.5778 42.4988 49.3065 42.4939 51.0349 42.4637C51.0501 41.3201 51.0277 40.1907 51.057 39.0416Z" fill="black"/>
<path d="M137.22 39.0277C138.578 38.9729 140.233 39.0164 141.609 39.016L149.964 39.0297C149.95 40.174 149.945 41.3183 149.952 42.4626C151.673 42.4787 153.395 42.478 155.117 42.4605L155.132 45.8743C156.262 45.8608 157.394 45.8642 158.525 45.8845L158.522 50.9995C159.636 51.0381 160.845 51.0271 161.969 51.0408C161.962 55.169 162.066 59.6745 161.928 63.7596C160.794 63.7753 159.66 63.7848 158.526 63.7882C158.461 65.6617 158.538 67.8264 158.516 69.752C157.973 69.7782 157.361 69.7753 156.812 69.7852L156.793 71.4914L155.119 71.5127C155.069 72.5107 155.108 73.8738 155.104 74.8966C154.383 74.869 153.543 74.893 152.812 74.896C151.999 75.5788 150.461 77.2755 149.608 77.482C148.746 77.6903 147.492 77.8852 146.553 78.1048C146.511 78.6853 146.518 79.4301 146.508 80.0205C144.307 80.1367 141.876 79.9465 139.633 80.0843C139.608 80.5792 139.627 81.2199 139.628 81.7262C138.673 81.8001 137.464 81.7691 136.489 81.7669C134.702 81.7542 132.915 81.7563 131.128 81.773C131.127 82.901 131.118 84.029 131.101 85.1568C129.399 85.1892 127.687 85.1294 125.981 85.1819C125.938 85.8191 125.954 86.667 125.945 87.3201C124.925 87.4144 123.577 87.3811 122.524 87.38C121.397 87.3748 120.287 87.365 119.16 87.4024C119.12 88.4436 119.142 89.5997 119.142 90.6507C117.68 90.7476 116.069 90.6066 114.551 90.7054C114.552 91.8421 114.56 92.9788 114.575 94.1154C113.297 94.1791 111.917 94.1588 110.63 94.162L110.602 95L108.96 94.9983C108.907 94.1449 108.94 92.9429 108.939 92.0641C107.968 92.0571 106.988 92.0638 106.02 91.9988C105.988 91.5505 106.004 90.9005 106.002 90.4365L106.877 90.4197L106.892 86.4553C107.955 86.4104 109.243 86.4413 110.316 86.4416C110.386 85.0016 110.319 83.3542 110.337 81.8736C111.28 81.8093 112.619 81.8421 113.577 81.8443L113.589 74.9764C114.315 74.9631 115.029 74.9824 115.767 74.9648C115.854 72.8545 115.788 70.2822 115.791 68.1443C116.893 68.113 118.104 68.1363 119.215 68.1353C119.31 65.3561 119.206 62.4045 119.258 59.5887L120.927 59.5627C120.932 57.8552 120.928 56.1476 120.914 54.4402L123.515 54.4491L123.53 51.1234C123.915 50.5937 124.341 49.9056 124.709 49.348L126.077 49.3235L126.092 47.7161C126.973 47.0709 127.601 46.6056 128.44 45.906C128.793 45.887 129.17 45.8834 129.526 45.8735L129.544 44.1907L131.225 44.1631C131.22 43.5925 131.239 43.0456 131.258 42.4753L137.227 42.4562C137.211 41.3134 137.208 40.1705 137.22 39.0277Z" fill="black"/>
<path d="M109.047 106.004C109.589 105.993 110.107 106.008 110.648 106.022L110.606 106.912C111.807 106.873 113.351 106.886 114.539 106.925C114.604 107.892 114.564 109.36 114.565 110.35C116.071 110.396 117.666 110.321 119.158 110.423C119.198 111.405 119.162 112.647 119.173 113.66C121.309 113.652 123.872 113.605 125.985 113.69C126.016 114.356 125.999 115.164 126.002 115.842C127.712 115.829 129.421 115.839 131.13 115.872C131.182 116.903 131.145 118.222 131.144 119.275C133.909 119.271 136.937 119.205 139.681 119.289C139.645 119.824 139.651 120.451 139.644 120.994L141.4 121.016C141.398 121.572 141.405 122.127 141.42 122.682C143.439 122.719 146.197 122.533 148.149 122.837C148.626 122.912 152.43 125.792 153.081 126.27C153.902 126.874 153.54 127.355 155.065 127.948C155.17 128.339 155.146 129.107 155.149 129.544L156.803 129.596L156.805 131.262L158.536 131.274C158.563 133.252 158.536 135.29 158.533 137.272C159.687 137.26 160.847 137.238 162 137.275C161.943 138.663 161.977 140.308 161.974 141.714L161.974 150.034C160.864 150.078 159.638 150.06 158.524 150.063L158.544 155.163C157.415 155.181 156.285 155.189 155.155 155.188C155.154 156.095 155.204 157.738 155.116 158.572L150.03 158.582C149.988 159.637 150.023 160.911 150.023 161.983L137.23 162C137.184 160.937 137.218 159.655 137.219 158.577C135.226 158.54 133.23 158.603 131.234 158.557C131.21 158.042 131.228 157.402 131.229 156.877L129.519 156.851C129.482 156.319 129.502 155.727 129.509 155.189L128.045 155.17C127.585 154.574 127.287 153.972 126.722 153.464C126.632 153.443 126.279 153.359 126.24 153.303C125.115 151.716 123.657 149.587 122.629 148.007L122.619 141.459C121.5 141.472 120.382 141.477 119.263 141.476C119.199 138.628 119.289 135.751 119.227 132.894C118.095 132.903 116.962 132.896 115.83 132.873C115.73 130.657 115.868 128.291 115.79 126.042L113.604 126.054C113.545 123.859 113.597 121.421 113.597 119.206C112.513 119.205 111.429 119.197 110.345 119.18C110.363 117.663 110.347 116.125 110.344 114.607L106.912 114.608C106.878 113.324 106.901 111.938 106.898 110.646L106 110.625C106.003 110.081 106.011 109.536 106.023 108.992L108.967 108.99C108.965 108.518 108.898 106.359 109.047 106.004Z" fill="black"/>
<path d="M90.4686 106.004C90.9963 105.993 91.511 106.007 92.0383 106.019C92.098 106.752 92.055 108.205 92.0554 108.991L94.9743 109.017C95.0075 109.482 94.9951 110.134 95 110.614L94.1226 110.644C94.1171 111.708 94.1663 113.607 94.0631 114.599C92.9384 114.616 91.7985 114.61 90.6724 114.613C90.6514 116.134 90.6443 117.655 90.6508 119.175C89.6383 119.226 88.4254 119.2 87.398 119.204C87.4004 121.474 87.3806 123.746 87.3387 126.016C86.6599 126.005 85.8801 126.04 85.1939 126.053L85.1739 132.859C84.0829 132.914 82.8806 132.897 81.7858 132.898C81.6951 135.591 81.7934 138.701 81.7692 141.446C80.712 141.502 79.4591 141.472 78.3862 141.471C78.3164 143.556 78.3742 145.927 78.3784 148.033C77.2886 149.76 75.9698 151.656 74.7432 153.286C74.6766 153.375 74.3189 153.455 74.1985 153.482C73.7843 153.994 73.3598 154.612 72.9711 155.151L71.4906 155.18C71.4701 155.712 71.467 156.27 71.4558 156.804C70.9236 156.839 70.3357 156.847 69.7983 156.866L69.7948 158.553C67.7943 158.566 65.7938 158.568 63.7932 158.558C63.7741 159.675 63.7911 160.828 63.7945 161.948C62.4294 162.011 60.886 161.967 59.5064 161.968C56.6766 161.961 53.8469 161.972 51.0172 162C50.9624 160.997 51.0027 159.599 51.0004 158.566C49.6356 158.544 48.2015 158.571 46.8312 158.576L45.87 158.584C45.8439 157.48 45.8648 156.295 45.8643 155.184C44.7589 155.161 43.6079 155.172 42.4987 155.168C42.491 153.461 42.4961 151.754 42.5139 150.047C41.3882 150.025 40.1861 150.05 39.0545 150.053C38.9488 146.057 39.0225 141.295 39.0625 137.273C40.0587 137.206 41.4812 137.237 42.5098 137.228C42.4912 135.24 42.4855 133.251 42.4926 131.262L44.2001 131.25L44.2166 129.588C44.7692 129.584 45.3216 129.572 45.8738 129.553L45.8753 127.92C47.4682 127.552 47.0432 127.084 47.8033 126.427C48.3474 125.956 52.5057 122.863 52.9318 122.813C54.8935 122.58 57.6117 122.684 59.6094 122.684L59.6056 120.994C60.1779 121.002 60.7503 120.992 61.3219 120.964L61.3435 119.29C64.1084 119.228 67.1002 119.268 69.8699 119.274L69.8528 115.858C71.4685 115.797 73.3738 115.836 75.0114 115.834L75.0229 113.664L81.8452 113.668C81.8715 112.58 81.8217 111.513 81.8665 110.408C82.9094 110.297 85.3007 110.359 86.437 110.361L86.4355 106.914C87.7237 106.867 89.1304 106.902 90.4275 106.909C90.409 106.603 90.3543 106.279 90.4686 106.004Z" fill="black"/>
<path d="M147.858 81.4091C151.442 81.1818 154.956 81.067 158.543 81.0413C159.855 81.032 161.109 80.9644 162.427 81.0249C162.412 82.0118 162.411 82.9989 162.424 83.9858C164.617 83.9854 167.137 83.9158 169.296 84.0185C169.307 84.5672 169.329 85.135 169.293 85.6807C169.872 85.6823 170.452 85.6902 171.032 85.7043L171.064 88.3732C172.189 88.3978 173.362 88.3862 174.49 88.3921C174.546 90.327 174.495 92.4917 174.502 94.4527L178 94.4627V106.513C176.838 106.512 175.675 106.528 174.513 106.559C174.466 108.539 174.497 110.651 174.498 112.637C173.416 112.696 172.174 112.676 171.079 112.682C171.036 113.462 171.049 114.473 171.039 115.268L169.326 115.275C169.301 115.825 169.323 116.492 169.329 117.052L162.431 117.061C162.434 118 162.422 118.939 162.397 119.876C160.751 120.088 158.923 119.97 157.245 119.943C154.119 119.918 150.993 119.817 147.873 119.639C147.876 118.476 147.867 117.313 147.849 116.149C145.259 116.126 142.669 116.122 140.078 116.139C140.079 114.983 140.067 113.828 140.043 112.673C138.911 112.661 137.778 112.658 136.646 112.662C136.61 112.101 136.625 111.5 136.63 110.934C134.924 110.911 133.181 110.927 131.473 110.923L131.467 109.19C129.814 109.14 127.985 109.19 126.306 109.173L126.299 106.839C124.032 106.8 121.678 106.871 119.438 106.795C119.402 105.851 119.395 104.907 119.416 103.964L109.054 103.959C108.958 102.024 109.015 99.0375 109.036 97.0716C112.492 97.0829 115.949 97.0759 119.405 97.0507L119.436 94.2097C121.224 94.0667 124.455 94.1673 126.318 94.1718L126.305 91.8388C127.837 91.7536 129.892 91.8198 131.458 91.831C131.453 91.2699 131.466 90.6875 131.469 90.1245C133.189 90.1003 134.909 90.0959 136.628 90.1113C136.605 89.5557 136.621 88.9558 136.627 88.3958C137.649 88.3414 139.01 88.3764 140.058 88.3716C140.088 87.2283 140.07 86.05 140.096 84.8915C142.5 84.805 145.389 84.8947 147.857 84.8829C147.9 83.7754 147.867 82.5279 147.858 81.4091Z" fill="black"/>
<path d="M38.5859 81.0059C40.2412 80.9715 41.907 81.0987 43.555 81.1021C46.7857 81.1088 49.9134 81.2166 53.1378 81.4617C53.141 82.615 53.1505 83.7684 53.166 84.9217L58.2588 84.924C59.0458 84.9261 60.1598 84.8975 60.9256 84.9475C60.9293 86.0118 60.8959 87.3719 60.9539 88.4121C62.0471 88.4085 63.318 88.3753 64.3964 88.4275L64.3878 90.1392C66.0575 90.1311 67.925 90.0826 69.5807 90.1512C69.5849 90.6886 69.5751 91.3147 69.6061 91.8434C71.2161 91.9339 73.0768 91.7249 74.6966 91.8852C74.6856 92.6579 74.688 93.4309 74.7039 94.2036C77.0056 94.1791 79.3074 94.1805 81.609 94.2077C81.6172 95.1551 81.6377 96.1277 81.6174 97.0729C85.0584 97.1069 88.561 97.0353 91.9831 97.0955C91.9849 99.3431 92.0252 101.718 91.9746 103.955C88.5225 104.005 85.0676 103.946 81.6172 103.972L81.6123 106.817C79.3737 106.891 76.8858 106.755 74.7216 106.873L74.6882 109.168C72.9814 109.199 71.2742 109.207 69.5671 109.195C69.5654 109.768 69.5678 110.342 69.5744 110.915C67.847 110.972 66.1131 110.901 64.3995 110.955L64.3798 112.638C63.2051 112.702 62.0987 112.664 60.9377 112.691C60.9093 113.843 60.9291 114.985 60.9117 116.135C58.4385 116.135 55.6072 116.073 53.1645 116.162C53.1146 117.29 53.1341 118.475 53.1369 119.61C50.5638 119.821 47.8466 119.868 45.2613 119.92C43.0743 119.966 40.7835 120.057 38.607 119.95C38.5778 119.123 38.6317 117.781 38.5713 117.064C36.3531 117.064 33.9047 117.118 31.7064 117.057C31.6989 116.491 31.6728 115.826 31.6887 115.268C31.1111 115.285 30.5543 115.302 29.9764 115.295L29.9499 112.693C28.8425 112.69 27.6053 112.713 26.5039 112.676C26.4778 110.639 26.4737 108.601 26.4916 106.563C25.3278 106.548 24.1639 106.539 23 106.536V94.4805C24.1443 94.4817 25.3619 94.4615 26.5001 94.491C26.4973 92.4754 26.471 90.4055 26.5001 88.3943L29.945 88.3907L29.9642 85.7205C30.531 85.7042 31.098 85.6952 31.665 85.6938L31.6566 84.0306C33.9443 83.9804 36.3198 84.0692 38.5685 84.0045C38.5685 83.1131 38.5329 81.8682 38.5859 81.0059Z" fill="black"/>
<path d="M93.4475 23H107.526C107.528 24.1475 107.512 25.347 107.581 26.4881L112.869 26.5049C112.85 27.0737 112.869 27.6565 112.879 28.2267L114.673 28.2323C114.694 28.7705 114.678 29.385 114.678 29.9293C115.265 29.9308 115.843 29.9184 116.427 29.9956C116.44 31.6337 116.376 33.5348 116.466 35.1407C117.611 35.1052 118.841 35.1265 119.992 35.1278L119.982 44.0953C119.989 46.2225 120.032 48.4502 119.952 50.5636C119.052 50.6422 117.408 50.5865 116.405 50.605C116.359 52.871 116.45 55.1544 116.389 57.4428C115.5 57.4622 114.657 57.4445 113.763 57.5051C113.707 59.7862 113.795 62.0772 113.722 64.3705L111.123 64.4058C111.073 66.0521 111.115 67.8623 111.093 69.5308C110.534 69.561 109.898 69.5601 109.331 69.5723C109.331 71.2508 109.359 73.024 109.284 74.6937C108.509 74.6878 107.735 74.6966 106.96 74.7202C106.869 76.9505 106.958 79.3514 106.916 81.6209C105.951 81.6411 104.955 81.6348 103.987 81.6403C103.956 85.0727 104.01 88.5212 104.001 91.9575C102.858 92.0192 101.582 91.992 100.424 91.989C99.366 91.9864 98.0345 92.034 97.0008 91.9492C96.952 90.7432 96.9894 89.2791 96.9887 88.0601C96.981 85.9221 96.9851 83.7841 97.001 81.6461L94.0733 81.6306C94.0006 80.8319 94.0389 79.3611 94.0428 78.4983C94.0479 77.3543 94.0043 75.8239 94.0958 74.7098L91.6818 74.7204C91.6484 73.0055 91.651 71.29 91.6894 69.5751C91.1013 69.5654 90.4872 69.5767 89.8967 69.5788C89.8248 68.0278 89.8787 65.9935 89.872 64.3981C89.0488 64.3769 88.1149 64.3978 87.2835 64.3998C87.1565 62.4047 87.253 59.5326 87.2571 57.4657L84.6318 57.4821C84.5094 55.3973 84.5797 52.7346 84.5811 50.606C83.4565 50.5663 82.205 50.5854 81.0748 50.59C80.9491 48.8616 81.0193 46.4079 81.0216 44.625L81.0189 35.1137C82.1566 35.1535 83.4204 35.1338 84.5677 35.1393C84.6015 33.4383 84.5745 31.6585 84.5711 29.9508C85.1101 29.9141 85.779 29.9241 86.3294 29.9187L86.3311 28.2321C86.9092 28.2116 87.5371 28.2199 88.1193 28.2166L88.1138 26.4867C89.8801 26.4717 91.6465 26.4781 93.4127 26.5061C93.51 25.542 93.4576 24.0162 93.4475 23Z" fill="black"/>
<path d="M97.0747 109.039C99.1112 109.033 101.966 108.946 103.962 109.052C104.05 112.25 104.024 116.158 103.964 119.375C104.88 119.375 105.988 119.35 106.888 119.394L106.874 126.291C107.623 126.296 108.446 126.284 109.188 126.32L109.217 131.455C109.751 131.463 110.459 131.455 110.979 131.494C110.966 133.203 110.968 134.912 110.984 136.621C111.772 136.629 112.768 136.614 113.54 136.653C113.56 138.108 113.566 139.563 113.56 141.019C113.56 141.717 113.593 142.87 113.516 143.544C114.435 143.526 115.266 143.516 116.186 143.547C116.189 145.806 116.149 148.217 116.202 150.468C117.333 150.47 118.766 150.433 119.873 150.495C120.164 155.051 119.89 157.857 119.698 162.379C119.113 162.409 118.541 162.441 117.955 162.449C117.942 164.722 117.999 167.062 117.936 169.323L114.508 169.345L114.5 172.749L112.691 172.76C112.682 173.323 112.664 173.907 112.669 174.468C110.649 174.536 108.626 174.457 106.617 174.514L106.594 178H94.4594C94.4527 176.844 94.4574 175.668 94.436 174.514C92.4265 174.495 90.4168 174.491 88.4071 174.502L88.3622 172.769L86.5671 172.76L86.5659 169.34C85.4755 169.338 84.2639 169.361 83.1837 169.327C82.9976 167.608 83.1721 164.288 83.1493 162.449L81.3695 162.43C81.2331 159.146 80.7269 153.65 81.1937 150.486C82.3838 150.467 83.6862 150.509 84.845 150.468C84.881 148.149 84.8255 145.841 84.851 143.535C85.7311 143.521 86.6113 143.52 87.4914 143.531L87.4777 136.623C88.3402 136.629 89.2028 136.631 90.0653 136.628C90.0649 135.008 90.0156 133.053 90.0822 131.467L91.8491 131.469C91.8601 129.746 91.8624 128.021 91.8558 126.297C92.608 126.286 93.431 126.302 94.1704 126.276C94.2117 124.263 94.0627 121.253 94.2203 119.393C95.173 119.371 96.126 119.363 97.079 119.369C97.0743 116.044 96.9926 112.335 97.0747 109.039Z" fill="black"/>
</svg>
